HIERARCHY
ROOT Hips
{
 OFFSET 0.000000 0.000000 0.000000
 CHANNELS 6 Xposition Yposition Zposition Yrotation Xrotation Zrotation
 JOINT Chest
 {
  OFFSET 0.000000 9.588913 -0.003946
  CHANNELS 3 Yrotation Xrotation Zrotation
  JOINT Chest2
  {
   OFFSET 0.000000 9.541882 0.008053
   CHANNELS 3 Yrotation Xrotation Zrotation
   JOINT Chest3
   {
    OFFSET 0.000000 9.501360 0.000000
    CHANNELS 3 Yrotation Xrotation Zrotation
    JOINT Chest4
    {
     OFFSET 0.000000 9.491660 0.000000
     CHANNELS 3 Yrotation Xrotation Zrotation
     JOINT Neck
     {
      OFFSET 0.000000 14.331917 0.000000
      CHANNELS 3 Yrotation Xrotation Zrotation
      JOINT Head
      {
       OFFSET 0.000000 8.884799 0.017034
       CHANNELS 3 Yrotation Xrotation Zrotation
       End Site
       {
        OFFSET 0.000000 16.896195 0.008993
       }
      }
     }
     JOINT RightCollar
     {
      OFFSET -2.923010 9.499495 0.000000
      CHANNELS 3 Yrotation Xrotation Zrotation
      JOINT RightShoulder
      {
       OFFSET -13.795216 0.000000 0.000000
       CHANNELS 3 Yrotation Xrotation Zrotation
       JOINT RightElbow
       {
        OFFSET -30.272209 0.000000 0.000000
        CHANNELS 3 Yrotation Xrotation Zrotation
        JOINT RightWrist
        {
         OFFSET -24.478199 0.000000 0.000000
         CHANNELS 3 Yrotation Xrotation Zrotation
         End Site
         {
          OFFSET -18.090752 0.000000 0.000000
         }
        }
       }
      }
     }
     JOINT LeftCollar
     {
      OFFSET 2.923010 9.499495 0.000000
      CHANNELS 3 Yrotation Xrotation Zrotation
      JOINT LeftShoulder
      {
       OFFSET 13.795216 0.000000 0.000000
       CHANNELS 3 Yrotation Xrotation Zrotation
       JOINT LeftElbow
       {
        OFFSET 30.272209 0.000000 0.000000
        CHANNELS 3 Yrotation Xrotation Zrotation
        JOINT LeftWrist
        {
         OFFSET 24.478199 0.000000 0.000000
         CHANNELS 3 Yrotation Xrotation Zrotation
         End Site
         {
          OFFSET 18.090752 0.000000 0.000000
         }
        }
       }
      }
     }
    }
   }
  }
 }
 JOINT RightHip
 {
  OFFSET -7.826875 0.019532 0.001973
  CHANNELS 3 Yrotation Xrotation Zrotation
  JOINT RightKnee
  {
   OFFSET 0.000000 -40.546152 -0.001885
   CHANNELS 3 Yrotation Xrotation Zrotation
   JOINT RightAnkle
   {
    OFFSET 0.000000 -39.417092 -0.003189
    CHANNELS 3 Yrotation Xrotation Zrotation
    JOINT RightToe
    {
     OFFSET 0.000000 -7.579396 17.243563
     CHANNELS 3 Yrotation Xrotation Zrotation
     End Site
     {
      OFFSET 0.000000 -1.500329 6.694466
     }
    }
   }
  }
 }
 JOINT LeftHip
 {
  OFFSET 7.826875 0.019532 0.001973
  CHANNELS 3 Yrotation Xrotation Zrotation
  JOINT LeftKnee
  {
   OFFSET 0.000000 -40.546152 -0.001885
   CHANNELS 3 Yrotation Xrotation Zrotation
   JOINT LeftAnkle
   {
    OFFSET 0.000000 -39.417092 -0.003189
    CHANNELS 3 Yrotation Xrotation Zrotation
    JOINT LeftToe
    {
     OFFSET 0.000000 -7.579396 17.243563
     CHANNELS 3 Yrotation Xrotation Zrotation
     End Site
     {
      OFFSET 0.000000 -1.500329 6.694466
     }
    }
   }
  }
 }
}
MOTION
Frames: 9
Frame Time: 0.008333
0.000000 87.345680 0.000000 0.000000 -5.767889 0.000000 0.000000 11.653876 0.000000 0.000000 -5.885988 0.000000 0.000000 -0.000000 0.000000 0.000000 -0.000000 0.000000 0.000000 12.528808 0.000000 0.000000 0.711711 0.000000 0.000000 -0.000000 0.000000 0.000000 -0.000000 0.000000 2.309063 -0.000000 0.000000 -2.309063 -0.000000 -0.000000 0.000000 -0.000000 0.000000 0.000000 0.000000 0.000000 -2.309063 0.000000 0.000000 2.309063 -0.000000 0.000000 0.000000 8.520374 0.000000 0.000000 1.905768 0.000000 -0.000000 -4.658254 0.000000 0.000000 -0.000000 0.000000 0.000000 8.520374 0.000000 0.000000 1.905768 0.000000 -0.000000 -4.658254 0.000000 0.000000 -0.000000 0.000000
-4.203232 19.956406 0.172049 130.754599 -33.795084 -4.857170 2.822095 21.497634 5.023212 0.875451 12.283763 1.604006 1.156404 15.350347 2.047214 0.875451 12.283763 1.604006 -0.534122 17.537813 -0.734458 -0.394356 -7.289866 -0.650095 3.393474 -15.957940 -13.957217 14.833628 -37.273441 80.050733 43.255612 12.485692 1.929581 -23.021070 1.332071 -3.598541 -7.341470 -15.328151 4.874946 -0.449285 -36.330851 -93.828553 -41.366209 5.208235 -15.306639 8.906681 20.961630 5.933560 4.116489 -66.423069 -19.154727 -156.274938 17.124824 -164.148172 -8.014096 -54.713438 13.663549 0.023627 2.849104 0.080844 10.077845 -75.595112 -3.940316 166.712684 7.302791 -170.877760 30.773859 -40.906666 -22.827263 -0.535344 -2.277179 -0.224175
-4.196050 19.954165 0.175545 130.769141 -33.794219 -4.880512 2.827002 21.517044 5.042931 0.873265 12.286084 1.604309 1.153680 15.353259 2.047530 0.873265 12.286084 1.604309 -0.535713 17.518956 -0.732292 -0.396476 -7.310441 -0.647400 3.404617 -15.965941 -13.961147 14.818444 -37.271262 80.038425 43.262919 12.477544 1.938849 -23.081438 1.350106 -3.574431 -7.329429 -15.339355 4.877825 -0.431364 -36.330252 -93.848114 -41.379303 5.181514 -15.305056 8.889595 20.949449 5.945890 4.004717 -66.413723 -19.065685 -156.282049 17.113916 -164.142124 -8.018599 -54.743815 13.633632 0.043912 2.833811 0.082367 9.972619 -75.590311 -3.829216 166.700001 7.292851 -170.875697 30.765378 -40.927290 -22.846927 -0.537130 -2.276916 -0.219782
-4.188061 19.951455 0.179682 130.783800 -33.791112 -4.905559 2.833417 21.533130 5.064044 0.872736 12.287579 1.605415 1.153061 15.355126 2.048909 0.872736 12.287579 1.605415 -0.540274 17.499879 -0.731490 -0.401406 -7.331226 -0.645465 3.404571 -15.973074 -13.962793 14.804802 -37.270786 80.026100 43.267648 12.466180 1.957593 -23.146940 1.370658 -3.546058 -7.320910 -15.345839 4.877765 -0.414763 -36.329614 -93.868105 -41.396141 5.149024 -15.307479 8.866608 20.934872 5.963257 3.891445 -66.404893 -18.975468 -156.288942 17.101112 -164.135208 -8.020103 -54.777061 13.611251 0.062743 2.817927 0.078936 9.866410 -75.589047 -3.719531 166.690504 7.282429 -170.872919 30.767565 -40.942640 -22.874983 -0.533980 -2.277040 -0.214609
-4.180212 19.948176 0.184053 130.797812 -33.783694 -4.927976 2.839488 21.542289 5.080238 0.873748 12.288734 1.607534 1.154414 15.356559 2.051615 0.873748 12.288734 1.607534 -0.547036 17.483116 -0.731155 -0.408545 -7.349469 -0.643531 3.397004 -15.977913 -13.963819 14.784658 -37.272592 80.021277 43.270232 12.456489 1.985324 -23.206410 1.389363 -3.519250 -7.317177 -15.347908 4.876875 -0.401827 -36.330394 -93.884210 -41.412198 5.108552 -15.314698 8.840801 20.914601 5.985968 3.788627 -66.398462 -18.896564 -156.295739 17.090113 -164.127925 -8.021035 -54.814310 13.597587 0.078388 2.807199 0.071580 9.780570 -75.592897 -3.631052 166.682842 7.271337 -170.868412 30.765553 -40.958577 -22.889232 -0.538458 -2.280108 -0.216401
-4.172572 19.944750 0.188211 130.811216 -33.775130 -4.947197 2.845675 21.546893 5.091531 0.874988 12.289748 1.610228 1.156074 15.357813 2.055049 0.874988 12.289748 1.610228 -0.555062 17.470462 -0.730372 -0.417121 -7.363225 -0.640854 3.389691 -15.978838 -13.966763 14.754521 -37.275030 80.024823 43.272436 12.449510 2.017681 -23.250166 1.404359 -3.495246 -7.313971 -15.348197 4.876287 -0.392971 -36.332626 -93.896593 -41.424658 5.064041 -15.325010 8.814295 20.887531 6.007921 3.699859 -66.392103 -18.832117 -156.308157 17.081848 -164.123428 -8.020597 -54.852888 13.584401 0.091848 2.798550 0.064343 9.712819 -75.597565 -3.563308 166.672831 7.261680 -170.866890 30.766308 -40.972282 -22.901260 -0.547262 -2.283147 -0.221342
-4.164721 19.941628 0.192294 130.823974 -33.768538 -4.966929 2.851755 21.551002 5.102155 0.876150 12.290539 1.612634 1.157622 15.358789 2.058118 0.876150 12.290539 1.612634 -0.563138 17.462158 -0.727933 -0.426134 -7.372254 -0.636440 3.385717 -15.977549 -13.971314 14.722782 -37.275062 80.031588 43.274389 12.442746 2.047315 -23.277362 1.415727 -3.472372 -7.310577 -15.347810 4.875751 -0.383229 -36.335311 -93.906274 -41.434852 5.017354 -15.339667 8.784947 20.854167 6.024719 3.619962 -66.383758 -18.774800 -156.327194 17.073842 -164.119106 -8.018867 -54.888908 13.565991 0.106188 2.787730 0.061029 9.648861 -75.599228 -3.502053 166.659154 7.253984 -170.868740 30.777313 -40.981220 -22.924678 -0.552047 -2.284102 -0.224226
-4.157054 19.938698 0.196529 130.835742 -33.761622 -4.987521 2.855701 21.553199 5.111535 0.877597 12.291237 1.614345 1.159506 15.359650 2.060323 0.877597 12.291237 1.614345 -0.569981 17.457837 -0.723000 -0.434424 -7.376965 -0.629698 3.383933 -15.975170 -13.974672 14.702144 -37.271376 80.031811 43.274859 12.429696 2.069326 -23.290104 1.425111 -3.451990 -7.307691 -15.344240 4.874764 -0.369350 -36.339560 -93.914787 -41.441208 4.969570 -15.362018 8.749613 20.816062 6.041038 3.545394 -66.377269 -18.719908 -156.350926 17.066587 -164.111717 -8.023309 -54.921098 13.543712 0.123542 2.777280 0.063309 9.590288 -75.599320 -3.446696 166.643118 7.246738 -170.869199 30.785849 -40.991452 -22.944685 -0.557694 -2.285767 -0.229447
-4.150050 19.935945 0.200594 130.843855 -33.753704 -5.004884 2.859657 21.553114 5.118623 0.879311 12.291963 1.615407 1.161701 15.360546 2.061721 0.879311 12.291963 1.615407 -0.575434 17.456465 -0.716038 -0.441720 -7.378484 -0.621148 3.380567 -15.972201 -13.976009 14.695765 -37.265237 80.022377 43.274976 12.409119 2.087165 -23.291429 1.434007 -3.436579 -7.305982 -15.337373 4.871117 -0.355851 -36.345677 -93.921043 -41.442535 4.921643 -15.392930 8.710185 20.775401 6.058948 3.475323 -66.373700 -18.667662 -156.377211 17.063013 -164.104832 -8.030489 -54.952405 13.516661 0.136854 2.770745 0.068010 9.548704 -75.599579 -3.406750 166.625316 7.239606 -170.868999 30.788821 -41.002562 -22.958014 -0.562014 -2.288730 -0.236498
